#N canvas 1733 394 912 886 12;
#X obj 58 22 inlet;
#X obj 471 25 inlet~;
#X obj 523 25 inlet~;
#X obj 574 25 inlet~;
#X obj 626 25 inlet~;
#X obj 677 24 inlet~;
#X obj 729 24 inlet~;
#X obj 781 24 inlet~;
#X obj 26 107 _fildesoi.gain;
#X floatatom 24 307 5 0 0 2 offset - - 0;
#X obj 74 309 tgl 15 0 empty empty direct 17 7 0 10 #fcfcfc #000000
#000000 0 1;
#X floatatom 271 134 5 0 0 2 a0 - - 0;
#X floatatom 231 156 5 0 0 2 a1 - - 0;
#X floatatom 192 183 5 0 0 2 a2 - - 0;
#X floatatom 232 213 5 0 0 2 a3 - - 0;
#X floatatom 274 240 5 0 0 2 a4 - - 0;
#X floatatom 314 216 5 0 0 2 a5 - - 0;
#X floatatom 354 187 5 0 0 2 a6 - - 0;
#X floatatom 313 158 5 0 0 2 a7 - - 0;
#X obj 119 147 _fildesoi.meter;
#X obj 407 148 _fildesoi.meter;
#X msg 80 434 a-0 \$1;
#X msg 99 456 a-1 \$1;
#X msg 112 479 a-2 \$1;
#X msg 127 502 a-3 \$1;
#X msg 138 526 a-4 \$1;
#X msg 149 549 a-5 \$1;
#X msg 165 573 a-6 \$1;
#X msg 176 596 a-7 \$1;
#X text 137 125 L;
#X text 423 126 R;
#X msg 210 509 angularoffset \$1;
#X msg 227 536 directangles \$1;
#X obj 831 25 inlet~;
#X msg 235 479 stereo \$1;
#X obj 135 308 tgl 15 0 empty empty stereo 17 7 0 10 #fcfcfc #000000
#000000 0 1;
#X obj 149 728 outlet;
#X obj 58 52 unpack 0 45 90 135 180 225 270 315 0 1 -10;
#X connect 0 0 37 0;
#X connect 1 0 19 0;
#X connect 1 0 20 0;
#X connect 2 0 19 0;
#X connect 3 0 19 0;
#X connect 4 0 19 0;
#X connect 5 0 20 0;
#X connect 5 0 19 0;
#X connect 6 0 20 0;
#X connect 7 0 20 0;
#X connect 9 0 31 0;
#X connect 10 0 32 0;
#X connect 11 0 21 0;
#X connect 12 0 22 0;
#X connect 13 0 23 0;
#X connect 14 0 24 0;
#X connect 15 0 25 0;
#X connect 16 0 26 0;
#X connect 17 0 27 0;
#X connect 18 0 28 0;
#X connect 21 0 36 0;
#X connect 22 0 36 0;
#X connect 23 0 36 0;
#X connect 24 0 36 0;
#X connect 25 0 36 0;
#X connect 26 0 36 0;
#X connect 27 0 36 0;
#X connect 28 0 36 0;
#X connect 31 0 36 0;
#X connect 32 0 36 0;
#X connect 33 0 20 0;
#X connect 34 0 36 0;
#X connect 35 0 34 0;
#X connect 37 0 11 0;
#X connect 37 1 12 0;
#X connect 37 2 13 0;
#X connect 37 3 14 0;
#X connect 37 4 15 0;
#X connect 37 5 16 0;
#X connect 37 6 17 0;
#X connect 37 7 18 0;
#X connect 37 8 9 0;
#X connect 37 9 10 0;
#X connect 37 10 8 0;
#X coords 0 -1 1 1 450 230 2 20 100;
