#N canvas 898 371 912 886 12;
#X obj 58 31 inlet;
#X obj 471 25 inlet~;
#X obj 523 25 inlet~;
#X obj 574 25 inlet~;
#X obj 626 25 inlet~;
#X obj 26 107 _fildesoi.gain;
#X floatatom 24 307 5 0 0 2 offset - - 0;
#X obj 74 309 tgl 15 0 empty empty direct 17 7 0 10 #fcfcfc #000000
#000000 0 1;
#X floatatom 231 156 5 0 0 2 a0 - - 0;
#X floatatom 230 215 5 0 0 2 a1 - - 0;
#X floatatom 314 216 5 0 0 2 a2 - - 0;
#X floatatom 313 158 5 0 0 2 a3 - - 0;
#X obj 119 147 _fildesoi.meter;
#X obj 407 148 _fildesoi.meter;
#X msg 80 434 a-0 \$1;
#X msg 99 456 a-1 \$1;
#X msg 112 479 a-2 \$1;
#X msg 127 502 a-3 \$1;
#X text 137 125 L;
#X text 423 126 R;
#X msg 210 509 angularoffset \$1;
#X msg 227 536 directangles \$1;
#X msg 235 479 stereo \$1;
#X obj 135 308 tgl 15 0 empty empty stereo 17 7 0 10 #fcfcfc #000000
#000000 0 1;
#X obj 149 728 outlet;
#X obj 58 61 unpack 45 135 225 315 0 1 -10;
#X connect 0 0 25 0;
#X connect 1 0 12 0;
#X connect 2 0 12 0;
#X connect 3 0 13 0;
#X connect 4 0 13 0;
#X connect 6 0 20 0;
#X connect 7 0 21 0;
#X connect 8 0 14 0;
#X connect 9 0 15 0;
#X connect 10 0 16 0;
#X connect 11 0 17 0;
#X connect 14 0 24 0;
#X connect 15 0 24 0;
#X connect 16 0 24 0;
#X connect 17 0 24 0;
#X connect 20 0 24 0;
#X connect 21 0 24 0;
#X connect 22 0 24 0;
#X connect 23 0 22 0;
#X connect 25 0 8 0;
#X connect 25 1 9 0;
#X connect 25 2 10 0;
#X connect 25 3 11 0;
#X connect 25 4 6 0;
#X connect 25 5 7 0;
#X connect 25 6 5 0;
#X coords 0 -1 1 1 450 230 2 20 100;
