#N canvas 775 194 791 808 10;
#X obj 108 120 tgl 30 0 empty empty source_on_off 35 7 0 10 #fcfcfc
#000000 #000000 0 1;
#X obj 108 170 _fildesoi.input;
#X msg 431 135 1 0;
#X obj 431 110 loadbang;
#X text 473 133 ADC number db input attenuation;
#X obj 14 6 cnv 15 500 25 empty empty FIL_DE_SOI_1_-_v2.0_-_8_LS 20
12 0 18 #606060 #fcfcfc 0;
#X obj 15 31 cnv 15 500 25 empty empty Acoustic_guitar_and_live_electronics_Alain_Bonardi
20 12 0 12 #606060 #fcfcfc 0;
#X obj 185 345 r toMT;
#X obj 50 259 _fildesoi.meter;
#X obj 485 264 tgl 30 0 empty empty dac_on_off 35 7 0 10 #fcfcfc #000000
#000000 0 1;
#X msg 485 310 \; pd dsp \$1;
#X obj 108 91 r sourceOnOff;
#X msg 112 321 0 45 90 135 180 225 270 315 0 1 -10;
#X obj 112 297 loadbang;
#X obj 201 404 dac~ 1 2 3 4 5 6 7 8;
#X obj 627 300 _fildesoi.evtcounter;
#X obj 628 247 loadbang;
#X obj 627 270 bng 15 250 50 0 empty empty reset 17 7 0 10 #fcfcfc
#000000 #000000;
#N canvas 295 320 234 253 fds1_keys 0;
#X obj 65 26 key;
#X floatatom 65 47 5 0 0 0 - - - 0;
#X obj 65 67 select 122 9;
#X obj 66 183 outlet;
#X obj 110 183 outlet;
#X connect 0 0 1 0;
#X connect 1 0 2 0;
#X connect 2 0 3 0;
#X connect 2 1 4 0;
#X restore 688 246 pd fds1_keys;
#X obj 627 178 r toMsg;
#X obj 627 208 print evt;
#X obj 627 362 _fildesoi1_events;
#X obj 117 371 print toMT;
#X obj 185 371 fildesoi1octo~ --------;
#X obj 111 492 _fildesoi.octodecodercontrol;
#X obj 110 762 s toMT;
#X connect 0 0 1 0;
#X connect 1 0 8 0;
#X connect 1 0 23 1;
#X connect 2 0 1 1;
#X connect 3 0 2 0;
#X connect 7 0 22 0;
#X connect 7 0 23 0;
#X connect 9 0 10 0;
#X connect 11 0 0 0;
#X connect 12 0 24 0;
#X connect 13 0 12 0;
#X connect 15 0 21 0;
#X connect 16 0 17 0;
#X connect 17 0 15 0;
#X connect 18 0 15 0;
#X connect 18 1 15 1;
#X connect 19 0 20 0;
#X connect 23 1 14 0;
#X connect 23 1 24 1;
#X connect 23 2 14 1;
#X connect 23 2 24 2;
#X connect 23 3 14 2;
#X connect 23 3 24 3;
#X connect 23 4 14 3;
#X connect 23 4 24 4;
#X connect 23 5 14 4;
#X connect 23 5 24 5;
#X connect 23 6 14 5;
#X connect 23 6 24 6;
#X connect 23 7 14 6;
#X connect 23 7 24 7;
#X connect 23 8 14 7;
#X connect 23 8 24 8;
#X connect 24 0 25 0;
